<?xml version="1.0" standalone="no"?>
<!DOCTYPE svg PUBLIC "-//W3C//DTD SVG 1.1//EN" "http://www.w3.org/Graphics/SVG/1.1/DTD/svg11.dtd" >
<!--
2013-9-30: Created.
-->
<svg>
<metadata>
Created by iconfont
</metadata>
<defs>

<font id="iconfont" horiz-adv-x="1024" >
  <font-face
    font-family="iconfont"
    font-weight="500"
    font-stretch="normal"
    units-per-em="1024"
    ascent="896"
    descent="-128"
  />
    <missing-glyph />
    
    <glyph glyph-name="qq" unicode="&#58892;" d="M511.488 746.282752c-246.009856 0-445.44-199.430144-445.44-445.44s199.430144-445.44 445.44-445.44 445.44 199.430144 445.44 445.44S757.497856 746.282752 511.488 746.282752zM734.613504 164.285184c0 0-18.706432-13.468672-41.90208 38.908928-8.979456-28.433408-27.685888-62.104576-34.419712-66.594816 25.440256-6.733824 43.399168-25.440256 35.9168-29.930496 6.733824-17.209344 10.47552-59.859968-76.321792-64.350208-20.202496-1.496064-53.126144 0.748544-95.776768 30.678016-21.699584-0.748544-27.685888 0-27.685888 0s-35.168256-40.406016-108.496896-26.1888c-38.161408 5.986304-77.81888 26.1888-54.622208 59.859968-8.230912 5.986304 7.482368 25.440256 28.433408 31.42656-8.230912 8.230912-29.930496 32.922624-32.923648 59.859968-11.224064-20.202496-24.692736-33.671168-37.412864-37.412864-19.454976 2.244608-23.195648 107.748352 38.161408 157.881344-2.244608 5.986304-4.489216 32.923648 5.23776 46.391296-2.993152 3.741696 1.496064 20.95104 12.720128 23.195648 0 0-10.47552 172.09856 166.112256 174.343168 163.867648 1.496064 172.09856-163.120128 172.09856-170.602496 10.47552-8.230912 21.699584-44.146688 12.720128-65.097728C718.152704 303.460096 769.033216 221.152 734.613504 164.285184z"  horiz-adv-x="1024" />

    
    <glyph glyph-name="iconfontkeyan1" unicode="&#59042;" d="M906.115638 65.107225 644.671137 541.189178 644.671137 694.813021l33.166377 0c18.22713 0 33.164331 14.82259 33.164331 32.901341 0 18.077727-14.938224 32.900318-33.164331 32.900318L346.180905 760.614679c-18.266016 0-33.166377-14.82259-33.166377-32.900318 0-18.078751 14.900362-32.901341 33.166377-32.901341l33.166377 0L379.347283 541.189178 117.86492 65.107225C42.767548-59.084285 100.720448-160.615703 246.682797-160.615703l530.651802 0C923.256016-160.615703 981.253942-59.084285 906.115638 65.107225zM241.370815 156.113939l204.307176 366.954533L445.67799 694.813021l132.662439 0 0-171.744549 203.240891-366.954533L241.370815 156.113939z"  horiz-adv-x="1024" />

    
    <glyph glyph-name="hezuo-copy" unicode="&#58944;" d="M28.416 326.784l56-28.8c0 0 25.472-14.592 38.912 12.672l138.624 289.92c0 0 13.12 24.768-8.32 36.416l-61.12 29.824c0 0-18.944 10.56-31.296-11.712-0.384-8.96-142.272-295.424-142.272-295.424s-9.024-23.488 9.472-32.896zM942.528 297.344l57.152 26.304c0 0 27.328 11.072 14.144 38.528l-142.592 287.936c0 0-11.392 25.536-33.792 15.936l-61.12-29.632c0 0-20.032-8.384-10.176-31.808 6.848-5.888 144.704-294.4 144.704-294.4s12.864-21.568 31.68-12.864zM164.032 298.304l18.88 40 66.24-83.648c0 0 43.072 9.856 58.176-17.088 0 0 14.208-16.384 8-47.296 0 0 8.896-6.464 9.6-10.496 0 0 29.632 7.168 47.488-13.888 0 0 16.384-13.056 14.528-38.528 0 0 11.776-5.056 14.208-12.032 0 0 29.12 7.232 43.264-9.792 0 0 17.28-16.128 16-35.008l27.072-19.776c0 0 25.216-2.112 29.248-21.824l24.256-17.92c0 0 38.784-15.36 40.96 23.424l-91.072 69.376c0 0-10.688 27.968 22.72 23.616l135.744-95.616c0 0 22.208-9.472 35.648 11.584 0 0 13.056 18.176-5.504 37.888l-144.384 104.32c0 0-12.736 29.184 20.032 26.944l171.328-121.216c0 0 24.32-9.664 34.56 8.448 0 0 13.888 18.112 0 36.8l-189.12 137.984c0 0-11.392 33.088 24 24.512l195.008-138.88c0 0 29.504-9.28 42.624 14.784 0 0 16.704 25.856-5.696 47.168l-275.84 240.64c0 0-51.264 24.512-81.856-26.752 0 0-5.376-83.52-98.176-98.752 0 0-63.296 4.864-48.576 46.4 0 0 18.56 24.576 16.96 76.352 0 0 2.112 37.12 27.84 68.8l-99.328 0 21.824 45.248h150.016c0 0 61.632 34.944 108.096 31.68 0 0 60.608-3.264 76.864-12.544 0 0 80.256-25.664 116.224-19.648l134.272-278.272-21.312-48.64c0 0 39.296-40.384 10.304-89.344-8.064-16.448-28.8-32.32-62.656-33.856 0 0 5.184-33.024-18.56-51.648 0 0-17.472-23.936-59.776-17.344 0 0 2.432-29.184-25.6-48.576 0 0-33.344-28.672-84.864 6.272 0 0-8.192-32.832-49.344-39.552 0 0-30.016-4.672-47.488 12.224 0 0-31.424-59.2-76.16-25.856 0 0-28.352 23.488-8.448 56.704 0 0-38.144-60.288-83.456-14.976 0 0-25.152 18.88-1.92 58.432 0 0-35.968-40.96-75.584-3.84 0 0-27.008 22.080-5.44 63.168 0 0-36.8-43.584-79.68-2.048 0 0-17.984 16.576-7.616 53.44l41.472 56.704-56 71.744z"  horiz-adv-x="1024" />

    
    <glyph glyph-name="jifen" unicode="&#58995;" d="M947.2 588.8l-134.4 211.2C800 819.2 780.8 832 761.6 832L211.2 832C185.6 832 166.4 819.2 153.6 800l-128-211.2C6.4 563.2 12.8 537.6 25.6 518.4l403.2-505.6c25.6-32 76.8-32 102.4 0l409.6 505.6C960 537.6 960 569.6 947.2 588.8zM889.6 576l-147.2 0-96 192 128 0L889.6 576zM460.8 576 256 576c19.2 32 44.8 96 96 192l108.8 0L460.8 576zM499.2 768l121.6 0c51.2-96 76.8-153.6 96-192L499.2 576 499.2 768zM460.8 512l0-460.8L448 70.4 236.8 512 460.8 512zM499.2 51.2 499.2 512l230.4 0-204.8-435.2L499.2 51.2zM198.4 768l128 0L230.4 576 83.2 576 198.4 768zM217.6 512 384 160 102.4 512 217.6 512zM582.4 160 755.2 512l115.2 0L582.4 160z"  horiz-adv-x="1024" />

    
    <glyph glyph-name="xinheart118" unicode="&#59221;" d="M677.51936 703.96928c113.1008 0 204.8-91.6992 204.8-204.77952 0-186.91072-370.3296-435.15904-370.3296-435.15904S141.68064 303.32928 141.68064 499.18976c0 140.78976 91.6992 204.77952 204.77952 204.77952 68.11648 0 128.28672-33.40288 165.5296-84.55168C549.24288 670.5664 609.41312 703.96928 677.51936 703.96928z"  horiz-adv-x="1024" />

    
    <glyph glyph-name="qiye" unicode="&#58888;" d="M206.207 657.813h136.244v-102.182h-136.244v102.182zM409.52 657.813h136.21v-102.182h-136.21v102.182zM206.207 485.472h136.244v-102.182h-136.244v102.182zM409.52 485.472h136.21v-102.182h-136.21v102.182zM747.104 485.472h67.093v-102.182h-67.093v102.182zM747.104 315.173h67.093v-102.182h-67.093v102.182zM206.207 315.173h136.244v-102.182h-136.244v102.182zM409.52 315.173h136.21v-102.182h-136.21v102.182zM950.454 4.619v619.113h-270.452v206.38h-609.996v-823.507h-33.573v-68.111h947.594v68.111h-33.573v-2.007zM137.117 4.619v757.377h473.794v-755.38h-473.794v-2.006zM679.985 4.619v551.045h203.327v-549.025h-203.327v-2.006zM679.985 4.619z"  horiz-adv-x="1024" />

    
    <glyph glyph-name="iconfontshumajiadian" unicode="&#58938;" d="M512.5 514.268c-123.997 0-224.511-100.557-224.511-224.554 0-124.027 100.513-224.592 224.511-224.592 123.99 0 224.511 100.565 224.511 224.592C737.011 413.711 636.49 514.268 512.5 514.268zM511.327 129.11c-88.114 0-159.539 71.46-159.539 159.605 0 88.113 71.426 159.573 159.539 159.573 88.106 0 159.54-71.46 159.54-159.573C670.867 200.569 599.433 129.11 511.327 129.11zM900.153 639.405l-148.772 0-55.201 112.681c-5.431 10.241-15.121 16.145-25.226 16.576-1.037 0.113-2.088 0.171-3.153 0.171L363.198 768.833c-6.112 0-11.8-1.911-16.57-5.189-4.767-2.825-8.903-7.068-11.814-12.558L279.178 639.405l-85.618 0 0 32.145c0 18.114-14.677 32.816-32.791 32.816-18.107 0-32.791-14.702-32.791-32.816l0-32.145-4.136 0c-67.293 0-121.842-54.574-121.842-121.897l0-458.625c0-67.317 54.549-121.891 121.842-121.891l776.311 0c67.299 0 121.847 52.574 121.847 119.891L1022 517.507C1022 584.831 967.452 639.405 900.153 639.405zM961.08 58.882c0-33.671-27.274-60.955-60.927-60.955l-776.311 0c-33.646 0-60.927 27.284-60.927 60.955L62.915 515.507c0 33.707 27.28 60.961 60.927 60.961l177.975 0 0 0.152c9.515 0.965 18.474 6.77 23.612 16.461l55.429 111.284 269.66 0 54.503-111.284c5.241-9.878 14.444-15.726 24.161-16.518l0-0.095 170.97 0c33.652 0 60.927-27.254 60.927-60.961L961.079 58.882zM799.821 511.768c-17.654 0-31.959-14.297-31.959-31.951 0-17.648 14.305-31.977 31.959-31.977 17.647 0 31.958 14.329 31.958 31.977C831.78 497.471 817.469 511.768 799.821 511.768z"  horiz-adv-x="1024" />

    
    <glyph glyph-name="xing" unicode="&#58896;" d="M1009.5616 441.89696c-72.26368-88.02304-200.04864-233.33888-200.04864-233.33888 0 0 20.89984-159.54944 32.6144-268.53376 5.08928-55.51104-34.92864-79.5136-80.25088-57.87648-86.24128 43.32544-217.47712 110.44864-246.99904 125.57312-30.04416-14.97088-162.60096-80.98816-249.73312-124.2112-45.84448-21.58592-86.34368 2.41664-81.19296 57.82528 11.86816 108.82048 32.98304 268.21632 32.98304 268.21632 0 0-129.24928 145.00864-202.35264 232.91904-25.83552 31.92832-9.24672 77.312 41.69728 85.6576 103.8848 19.64032 264.9088 50.944 264.9088 50.944 0 0 88.07424 162.33472 143.80032 261.75488 30.6688 60.49792 51.88608 53.51424 55.51104 51.73248 9.45152-3.25632 24.3712-15.02208 43.84768-51.78368 55.0912-99.57376 142.17216-262.12352 142.17216-262.12352 0 0 159.1296-31.30368 261.80608-50.9952C1018.65472 519.26016 1035.08992 473.82528 1009.5616 441.89696L1009.5616 441.89696z"  horiz-adv-x="1024" />

    
    <glyph glyph-name="feiji" unicode="&#59054;" d="M933.546667 697.173333c-9.045333 13.653333-21.504 9.045333-22.528 8.874667L102.912 505.002667c-7.509333-1.877333-13.312-7.68-15.36-15.018667-2.048-7.509333 0-15.36 5.461333-20.821333l152.405333-151.552 43.690667-238.933333c0-0.512 1.706667-14.165333 16.042667-16.896 11.946667-2.218667 17.92 3.754667 18.261333 3.925333l97.450667 77.482667 76.288-75.946667c4.608-4.437333 10.752-6.826667 17.066667-6.144 6.314667 0.682667 11.946667 3.925333 15.701333 9.386667l403.968 602.794667C934.4 674.133333 941.226667 685.397333 933.546667 697.173333zM150.016 472.746667l611.84 152.064L268.970667 354.474667 150.016 472.746667zM314.538667 177.322667l-25.429333 139.434667 348.16 190.976L353.621333 300.544c0 0-3.754667-3.072-5.290667-5.12-1.365333-1.877333-2.730667-6.314667-2.730667-6.314667L314.538667 177.322667zM370.858667 220.16l30.890667-37.717333-53.248-42.325333L370.858667 220.16zM509.952 117.418667l-125.098667 153.088 0 0L831.146667 596.650667 509.952 117.418667z"  horiz-adv-x="1024" />

    
    <glyph glyph-name="wangyuanjing" unicode="&#59057;" d="M893.456828 186.944995M491.889987 558.060291M568.154951 557.006286M976.949404 239.95021c0 0.184195-0.186242 0.36532-0.187265 0.548492-0.01842 6.181793-0.405229 12.298094-1.023306 18.322297 0 0-4.458545 0.103354-4.463662 0.154519-1.985214 19.164478-9.67536 37.420261-18.885116 54.384631l0 0.022513c0 0.627287 3.987824 1.245364 3.728928 1.863441L814.558897 658.367835c-0.116657 0.277316 0.857531 0.555655 0.727571 0.823761-19.659759 51.359738-68.798922 85.751013-123.58469 85.751013-73.343425 0-132.741233-59.458183-132.741233-132.550898 0-3.15383 0.249687-4.192485 0.442068-6.055926 0.107447-1.057075 0.324388-2.535753 0.511653-5.876847-0.004093-0.832971 0.083911-1.932002 0.195451-2.774183l3.399423-25.341155L495.332389 572.343599l3.364631 25.341155c0.11154 0.832971 0.165776 1.794879 0.161682 2.62785 0.188288 3.350304 0.335644 4.901637 0.443092 5.958712 0.192382 1.863441 0.304945 2.934842 0.304945 6.087649 0 73.092715-59.673078 132.566248-133.016503 132.566248-54.781674 0-104.461143-34.374902-124.129088-85.72543-0.12996-0.277316-0.255827-0.551562-0.376577-0.838088L94.366228 315.24508c-0.255827-0.608867-4.623297-1.224898-4.623297-1.852184l0-0.022513c-9.209756-22.351054-11.386328-46.045709-11.461029-71.959915-0.001023-0.177032 3.823072 0.406253 3.823072 0.406253l0.052189 0 0.026606 0c0-100.284007 72.353888-174.048011 164.752298-183.458335 6.160303-0.627287 12.415774-1.418302 18.738783-1.418302 5.930059 0 11.80179 0.090051 17.610076 0.656963 2.866281 0.275269 5.659907 0.662079 8.486278 1.067308 2.775206 0.405229 5.567809 0.682545 8.306176 1.211595 3.762697 0.716314 7.439436 1.62808 11.118222 2.570545 1.6158 0.420579 3.247974 0.771573 4.847401 1.235131 4.291746 1.230014 8.485255 2.651386 12.641925 4.178159 0.827855 0.306992 1.662873 0.587378 2.485611 0.907673 4.656043 1.787716 9.202593 3.767813 13.668301 5.912663 0.189312 0.092098 0.3776 0.180102 0.566912 0.272199 48.533366 23.552415 85.10019 67.7705 98.254791 121.240295 0.064468 0.25992 0.138146 0.51677 0.200568 0.778736 1.217734 5.045923 2.194992 10.169617 2.984984 15.368012 0.044002 0.286526 0.122797 0.561795 0.164752 0.851391l0.071631 0.348947c0.090051 0.429789 0.165776 0.859577 0.224104 1.298576l0.556679 4.14746c0.104377 0.913812 0.274246 1.679245 0.36532 2.597151l21.262256 158.378124 119.859855 0 21.262256-158.378124c0.091074-0.917906 0.260943-1.746784 0.36532-2.660596l0.556679-4.116761c0.058328-0.438998 0.134053-0.853437 0.224104-1.283226l0.071631-0.350994c0.044002-0.299829 0.125867-0.580215 0.170892-0.877997 0.787946-5.179976 1.76111-10.282181 2.974751-15.312754 0.067538-0.282433 0.147356-0.556679 0.215918-0.837064 13.165858-53.459562 49.735751-97.66332 98.269118-121.206526 0.171915-0.082888 0.344854-0.165776 0.51677-0.248663 4.479011-2.15406 9.036817-4.14132 13.707187-5.935176 0.810459-0.313132 1.63422-0.595564 2.449795-0.898463 4.166903-1.531889 8.370645-2.963495 12.672624-4.194532 1.589195-0.461511 3.210112-0.823761 4.816702-1.240247 3.687996-0.947582 7.370875-1.888 11.142781-2.607384 2.732228-0.529049 5.517667-0.864694 8.28571-1.267876 2.832512-0.407276 5.629207-0.911766 8.501628-1.187035 5.807263-0.566912 11.6749-0.8913 17.60496-0.8913 6.323009 0 12.730952 0.322341 18.891256 0.949628 92.39841 9.411347 164.898631 87.674828 164.898631 182.520987l0 0.004093L976.949404 239.95021 976.949404 239.95021zM692.251294 708.248895c40.017412 0 76.290547-25.415856 90.26584-63.238276 0.255827-0.689708 0.559748-1.379417 0.904603-2.042519l102.70515-245.12993c-27.303856 16.140609-59.018162 25.574469-92.967368 25.574469-68.648496 0-128.525212-37.95545-159.980621-93.928253l-36.515658 272.211728c-0.25992 4.9088-0.478907 6.969739-0.62217 8.403391-0.075725 0.708128-0.11154 1.102101-0.11154 2.293229C595.928504 665.247522 639.140679 708.248895 692.251294 708.248895zM275.383978 642.887258c0.358157 0.689708 0.672312 1.397836 0.940418 2.12336 13.975293 37.823444 50.248428 63.238276 90.26584 63.238276 53.110615 0 96.321766-43.001373 96.321766-95.856162 0-1.191128-0.035816-1.586125-0.11154-2.293229-0.143263-1.433652-0.363274-3.493567-0.62217-8.403391l-36.515658-272.211728c-31.455409 55.972802-91.332125 93.928253-159.980621 93.928253-33.948183 0-65.663512-9.432837-92.966345-25.572422L275.383978 642.887258zM190.405561 110.907205c-45.74895 24.88476-82.243119 73.39459-82.243119 129.038912 0 0.058328 0 0.116657 0 0.174985 0 5.102205 5.652743 10.172687 6.185886 15.202237 0.082888 0.787946 2.949168 1.545192 3.044336 2.329045 0.532119 4.344958 2.51938 8.676613 3.444449 12.95608 0.109494 0.51063 0.946558 1.000793 1.061169 1.511423 1.034563 4.544503 2.572592 9.05933 4.049223 13.515828 0.10847 0.329505 0.415462 0.647753 0.525979 0.976234 1.528819 4.51278 3.356444 8.976442 5.336542 13.381775 23.006993 51.043536 74.30431 86.723154 133.829008 86.723154 80.931241 0 146.797367-65.845661 146.797367-146.776901 0-4.821819-0.25685-9.581216-0.713244-14.284331l-0.50449-3.798513c-0.097214-0.787946-0.245593-1.556449-0.355087-2.338255-0.031722-0.183172-0.068562-0.36532-0.096191-0.550539-7.057743-49.267077-38.700417-90.205465-81.299631-111.014396-0.079818-0.037862-0.160659-0.075725-0.240477-0.116657-3.634784-1.76725-7.358595-3.368724-11.142781-4.835122-0.598634-0.230244-1.206478-0.441045-1.809205-0.663102-3.377934-1.258667-6.80601-2.405793-10.288321-3.415796-1.234107-0.352017-2.493797-0.64059-3.741207-0.962931-2.989077-0.779759-5.989411-1.527796-9.042957-2.118244-2.146896-0.410346-4.338818-0.683569-6.517437-0.998747-2.301416-0.338714-4.584412-0.738827-6.91448-0.964978-4.641717-0.446162-12.020778-0.714268-16.777105-0.714268C237.70482 93.165122 211.20119 99.594555 190.405561 110.907205zM474.41294 416.80208l15.997346 118.703519 78.020958 0 15.997346-118.703519L474.41294 416.80208zM793.160541 93.165122c-4.756327 0-9.448186 0.26913-14.089903 0.714268-2.335185 0.228197-4.622274 0.629333-6.928806 0.967024-2.173502 0.316202-4.358261 0.586354-6.500041 0.9967-3.059686 0.591471-6.068206 1.339508-9.063423 2.12336-1.238201 0.320295-2.489704 0.606821-3.715625 0.958838-3.492544 1.01205-6.930853 2.161223-10.31902 3.423983-0.589424 0.216941-1.183965 0.423649-1.77032 0.647753-3.803629 1.473561-7.546883 3.084245-11.199063 4.859681-0.055259 0.026606-0.110517 0.053212-0.164752 0.080841-42.615587 20.803815-74.274634 61.755506-81.337493 111.041002-0.029676 0.192382-0.068562 0.382717-0.102331 0.573051-0.10847 0.772596-0.25685 1.529843-0.353041 2.306532l-0.509606 3.798513c-0.456395 4.703115-0.723477 9.462512-0.723477 14.284331 0 80.931241 65.845661 146.776901 146.776901 146.776901 59.526745 0 110.784152-35.681664 133.790122-86.727247 1.968841-4.378727 3.699252-8.81783 5.221932-13.302981 0.121773-0.360204 0.273223-0.708128 0.39295-1.070378 1.459235-4.40738 2.64627-8.876158 3.673669-13.374612 0.125867-0.555655 0.305969-1.088798 0.425695-1.648546 0.916882-4.243651 1.551332-8.53949 2.082428-12.850679 0.099261-0.815575-2.693342-1.601474-2.608407-2.421142 0.532119-5.028527-2.167363-10.099009-2.167363-15.20019 0-0.058328 0-0.116657 0-0.174985 0-55.643298-28.139897-104.154151-73.888847-129.038912C839.286068 99.594555 818.451554 93.165122 793.160541 93.165122zM279.441387 319.439612c0 10.131755-8.215102 18.346857-18.346857 18.346857-7.744381 0-15.44476-0.923022-22.8668-2.732228-43.246967-10.534937-73.455989-49.021483-73.455989-93.589538 0-10.131755 8.215102-18.346857 18.346857-18.346857s18.346857 8.215102 18.346857 18.346857c0 27.592428 18.687618 51.41295 45.460378 57.94369 4.586458 1.119497 9.353019 1.684362 14.167674 1.684362C271.226285 301.092755 279.441387 309.306834 279.441387 319.439612zM793.160541 337.786469c-7.744381 0-15.44476-0.923022-22.8668-2.732228-43.246967-10.534937-73.455989-49.021483-73.455989-93.589538 0-10.131755 8.215102-18.346857 18.346857-18.346857s18.346857 8.215102 18.346857 18.346857c0 27.592428 18.687618 51.41295 45.460378 57.94369 4.586458 1.119497 9.353019 1.684362 14.167674 1.684362 10.131755 0 18.346857 8.215102 18.346857 18.346857C811.507398 329.571367 803.292296 337.786469 793.160541 337.786469z"  horiz-adv-x="1024" />

    
    <glyph glyph-name="target" unicode="&#58973;" d="M936.448 404.48h-109.056c-5.12 78.336-38.912 148.992-90.624 201.728l-1.536 1.536c-52.736 52.736-124.416 87.040-203.264 92.16v109.056c0 11.776-10.24 21.504-21.504 21.504-11.776 0-20.992-9.728-20.992-21.504v-109.056c-78.848-5.12-150.528-39.424-203.776-92.16-52.736-52.736-87.040-124.416-92.16-203.264h-109.056c-11.776 0-21.504-9.728-21.504-20.992 0-11.776 10.24-21.504 21.504-21.504h109.056c5.12-77.824 39.936-150.528 92.16-203.264 53.248-52.736 124.416-87.552 203.776-92.672v-108.544c0-11.776 9.216-20.992 20.992-20.992s21.504 9.728 21.504 20.992v108.544c79.36 5.12 150.528 39.424 203.264 92.672 52.224 52.736 87.040 124.416 92.16 203.264h109.056c11.776 0 20.992 9.728 20.992 21.504 0 11.264-9.216 20.992-20.992 20.992zM694.272 199.68c-42.496-41.984-98.304-69.632-161.28-75.264v112.64c0 12.288-10.752 22.528-22.528 22.528-12.288 0-22.016-10.24-22.016-22.528v-112.64c-63.488 5.632-119.808 33.28-161.792 75.264l-1.536 1.536c-40.96 41.984-68.096 97.792-73.216 159.744h112.128c12.288 0 22.016 10.24 22.016 23.040 0 12.288-9.728 22.016-22.016 22.016h-112.128c5.12 62.976 32.768 119.296 74.752 161.28v0c41.984 41.984 98.304 69.12 161.28 75.264v-112.64c0-12.288 9.728-22.528 22.016-22.528s22.528 10.24 22.528 22.528v112.64c62.464-5.632 118.784-33.28 161.28-75.776l1.536-1.536c41.472-41.984 68.608-97.792 73.728-160.256h-112.64c-12.288 0-22.016-10.24-22.016-22.016 0-12.288 10.24-23.040 22.016-23.040h112.64c-5.12-61.952-32.256-118.272-74.752-160.256z"  horiz-adv-x="1024" />

    
    <glyph glyph-name="dingyue" unicode="&#59035;" d="M203.264 3.072c-10.752 0-20.992 5.632-26.112 15.872-7.168 14.336-1.536 32.256 12.8 39.424l299.008 153.088c1.024 0.512 1.536 1.024 2.56 1.024 13.312 6.656 30.208 6.656 44.032-0.512l2.048-1.024 297.472-153.088c14.336-7.168 19.968-25.088 12.8-39.424-7.168-14.336-25.088-19.968-39.424-12.8l-294.912 152.064c0 0 0 0-0.512 0l-295.936-151.552C211.968 4.096 207.36 3.072 203.264 3.072zM629.248 580.096 394.752 580.096c-16.384 0-29.184 13.312-29.184 29.184 0 16.384 13.312 29.184 29.184 29.184l234.496 0c16.384 0 29.184-13.312 29.184-29.184C658.432 592.896 645.632 580.096 629.248 580.096zM749.056 278.528l-117.248 0c-16.384 0-29.184 13.312-29.184 29.184s13.312 29.184 29.184 29.184l117.248 0c16.384 0 29.184-13.312 29.184-29.184S765.44 278.528 749.056 278.528zM690.688 219.648c-16.384 0-29.184 13.312-29.184 29.184l0 117.248c0 16.384 13.312 29.184 29.184 29.184s29.184-13.312 29.184-29.184l0-117.248C719.872 232.96 706.56 219.648 690.688 219.648zM828.416-2.048c-16.384 0-29.184 13.312-29.184 29.184L799.232 664.576c0 8.192-6.656 14.848-14.848 14.848L239.616 679.424c-8.192 0-14.848-6.656-14.848-14.848l0-636.928c0-16.384-13.312-29.184-29.184-29.184-16.384 0-29.184 13.312-29.184 29.184L166.4 664.576c0 40.448 32.768 73.216 73.216 73.216l544.768 0c40.448 0 73.216-32.768 73.216-73.216l0-636.928C857.6 11.264 844.8-2.048 828.416-2.048z"  horiz-adv-x="1024" />

    
    <glyph glyph-name="xing1" unicode="&#58900;" d="M953.659181 495.147512c-7.214443 23.897842-28.406869 42.384852-62.675473 54.559225-0.450903 0-0.901805 0.450903-1.352708 0.450903L753.007486 587.13166c-32.014091 8.567151-59.519155 28.857772-78.006165 56.362836C643.889036 691.290181 612.77675 738.18406 581.664465 785.528842c0 0-0.450903 0.901805-0.901805 0.901805-19.388815 27.054161-43.737561 42.384852-68.086306 42.384852-17.585205 0-43.737561-7.665346-67.1845-44.639366l-76.653457-124.900044c-17.134302-27.955967-44.188463-49.148393-76.202554-58.617349-30.21048-9.018054-59.970057-18.48701-90.180537-27.505064l-68.086306-20.741524c-31.563188-10.370762-51.853809-26.603258-59.519155-49.148393-8.116248-23.44694-2.705416-51.402906 17.585205-84.318802 0.450903-0.901805 0.901805-1.803611 1.803611-2.254513 30.21048-38.777631 60.871863-77.104359 91.533245-115.88199 19.839718-24.799648 30.21048-56.362836 29.308675-87.926024-1.803611-57.715544-3.156319-115.88199-4.95993-173.597534-3.156319-35.621312 1.803611-60.871863 15.781594-76.653457 10.370762-12.174373 24.799648-18.036107 42.835755-18.036107 13.977983 0 30.21048 3.607221 52.304712 11.72347l130.310876 53.206517c31.563188 12.625275 66.733598 13.527081 98.296786 1.352708 51.402906-18.937913 102.805812-38.326728 154.659621-57.715544 13.527081-4.509027 25.701453-6.312638 36.97402-6.312638 25.25055 0 68.086306 11.72347 71.693527 89.729635 0 0.450903 0 1.352708 0 1.803611-2.254513 40.581242-5.861735 105.511229-8.567151 150.601497-1.803611 31.563188 7.665346 63.126376 26.603258 88.376926l102.805812 137.976222C953.659181 444.646411 960.422721 471.700572 953.659181 495.147512zM904.059886 436.981066l-110.020255-148.346984c-18.937913-25.701453-28.406869-56.813738-26.603258-88.376926 2.705416-48.246587 6.76354-120.84192 9.018054-162.324967l0-0.450903c-2.705416-54.108322-25.701453-54.108322-35.621312-54.108322-7.214443 0-15.781594 1.352708-25.25055 4.509027-38.777631 14.428886-115.88199 43.286658-166.833994 62.224571-32.014091 11.72347-67.1845 11.272567-98.296786-1.352708L307.966535-10.314399c-17.134302-6.312638-30.21048-9.018054-39.228534-9.018054-10.821664 0-13.977983 3.607221-15.330691 5.410832-4.058124 4.509027-9.919859 17.134302-7.214443 50.050198l0 0.901805 5.410832 188.02642c0.901805 32.014091-9.468956 63.126376-29.308675 87.926024-13.977983 17.585205-29.308675 37.424923-38.777631 49.148393-19.839718 25.25055-40.130339 50.952004-59.970057 76.202554-13.527081 22.545134-18.48701 40.581242-13.977983 53.206517 4.058124 11.272567 15.781594 20.290621 36.072215 26.603258l67.635403 20.741524 103.256715 31.563188c31.563188 9.468956 58.617349 30.661383 76.202554 58.617349L476.153236 765.238221c8.116248 12.625275 20.741524 27.505064 36.523118 27.505064 12.174373 0 26.152356-9.468956 38.326728-26.603258 0.450903-0.450903 0.450903-0.901805 0.901805-1.352708 25.701453-39.228534 70.791722-107.765742 100.100396-152.405108 18.036107-27.505064 45.992074-47.795685 78.006165-56.362836l150.601497-40.581242c15.330691-5.410832 33.817701-15.330691 38.326728-30.21048C923.448701 469.446059 913.528842 450.057244 904.059886 436.981066z"  horiz-adv-x="1024" />

    
    <glyph glyph-name="miaoshu" unicode="&#58897;" d="M602.319101 629.644944l166.831461 204.8-491.289888 2.301123 166.831461-207.101123zM602.319101 589.950562H442.966292l-173.734831-467.12809 251.397752-178.91236 257.725843 184.089888z"  horiz-adv-x="1127" />

    
    <glyph glyph-name="lianjie" unicode="&#58927;" d="M899.649 768.32l-3.599 3.599c-38.544 38.329-91.678 62.021-150.345 62.021s-111.801-23.692-150.354-62.031l-191.632-191.633c-82.776-82.776-82.776-218.004 0-300.78l3.599-3.509c6.838-6.838 14.215-13.046 21.683-18.894l70.179 70.178c-17.11 10.066-30.97 23.972-40.693 40.593l14.152-19.449c-44.896 44.987-44.896 118.045 0 162.851l191.733 191.643c44.807 44.987 117.864 44.987 162.851 0l3.599-3.509c44.896-44.896 44.896-117.954 0-162.851l-86.734-86.734c15.025-37.16 22.133-76.747 21.503-116.245l134.060 134.060c38.355 38.549 62.065 91.701 62.065 150.39s-23.71 111.841-62.075 150.398zM616.593 492.282c-22.567 22.371-50.16 39.71-80.933 50.168l-11.019-101.453c8.277-4.858 16.015-10.617 22.943-17.634l3.599-3.599c44.987-44.807 44.987-117.865 0-162.851l-191.643-191.643c-44.987-44.896-117.954-44.896-162.851 0l-3.599 3.599c-44.987 44.987-44.987 118.045 0 162.851l86.645 86.645c-13.633 32.865-21.55 71.034-21.55 111.053 0 1.857 0.017 3.711 0.051 5.56l-134.153-134.337c-82.776-82.776-82.776-218.185 0-300.78l3.599-3.599c82.685-82.685 218.004-82.685 300.69 0l191.643 191.643c38.291 38.578 61.955 91.721 61.955 150.39s-23.663 111.812-61.968 150.403l-3.586 3.586z"  horiz-adv-x="1024" />

    
    <glyph glyph-name="guanbijiantou" unicode="&#59501;" d="M481.834667 384L155.584 710.250667a21.333333 21.333333 0 0 0 30.165333 30.165333L512 414.165333 838.250667 740.416a21.333333 21.333333 0 0 0 30.165333-30.165333L542.165333 384l326.250667-326.250667a21.333333 21.333333 0 0 0-30.165333-30.165333L512 353.834667 185.749333 27.584a21.333333 21.333333 0 1 0-30.165333 30.165333L481.834667 384z"  horiz-adv-x="1024" />

    
    <glyph glyph-name="shuifeichaxun" unicode="&#58923;" d="M336.18 694.956h318.25v-65.845H336.18z m0-186.57h150.33v-65.844H336.18z m0-186.567h150.33v-65.845H336.18z m0-187.482h64.015v-64.017h-64.016z m108.804 0H509v-64.017h-64.016z m108.804 0h64.016v-64.017h-64.016z m108.804 0h64.016v-64.017h-64.016zM894.518 41.999l-81.725 127.613c31.477 26.137 53.375 61.65 62.27 102.253 10.58 48.204 1.736 97.639-24.895 139.19-13.937 21.768-31.948 39.896-52.797 53.852v252.25c0 35.606-28.973 64.577-64.487 64.577l-519.138 2.471c-0.043 0-0.078 0.012-0.12 0.012-0.04 0-0.072-0.012-0.111-0.012l-2.524 0.012-0.001-0.285c-55.155-1.552-84.14-48.926-84.14-95.981v-20.675H259.05l-0.119-625.023c0-35.606 28.963-64.578 64.569-64.578h409.282c35.615 0 64.588 28.973 64.588 64.578v49.134l50.685-79.142 46.462 29.754z m-79.157 346.767v-0.01c20.655-32.253 27.519-70.614 19.322-108.037-8.156-37.225-30.282-69.051-62.263-89.715l-6.08-3.523c-20.61-11.93-42.937-18.175-65.172-19.234-0.612-0.028-1.227-0.034-1.841-0.053-3.648-0.128-7.29-0.109-10.922 0.043-1.465 0.066-2.931 0.194-4.397 0.306-2.812 0.205-5.62 0.454-8.41 0.823-2.427 0.33-4.85 0.777-7.274 1.233-1.94 0.358-3.888 0.685-5.81 1.124-2.912 0.668-5.76 1.492-8.6 2.328-1.571 0.463-3.161 0.861-4.716 1.377-2.771 0.919-5.46 2.013-8.154 3.092-1.606 0.645-3.241 1.209-4.824 1.912-2.374 1.053-4.652 2.276-6.955 3.453-1.808 0.923-3.655 1.763-5.426 2.766-1.869 1.057-3.634 2.271-5.45 3.41-2.078 1.304-4.195 2.534-6.21 3.948-1.304 0.916-2.513 1.965-3.785 2.925-2.389 1.801-4.805 3.558-7.09 5.52-0.62 0.532-1.174 1.14-1.785 1.683-9.659 8.58-18.366 18.539-25.672 29.952a144.419 144.419 0 0 0-7.226 12.649c-0.264 0.52-0.456 1.064-0.714 1.585-27.315 55.607-15.413 122.423 28.056 165.236 0.211 0.207 0.394 0.438 0.607 0.645 2.8 2.723 5.81 5.28 8.865 7.796 0.685 0.565 1.304 1.19 2.003 1.743a144.08 144.08 0 0 0 11.817 8.441 145.545 145.545 0 0 0 17.688 9.642c3.382 1.551 6.89 2.656 10.354 3.93 2.727 1.006 5.397 2.211 8.172 3.047 3.76 1.128 7.603 1.814 11.424 2.626 2.618 0.557 5.196 1.298 7.84 1.705 3.6 0.554 7.235 0.7 10.86 0.978 2.975 0.226 5.932 0.599 8.926 0.636 5.995 0.081 12-0.148 17.973-0.825 0.268-0.03 0.536-0.098 0.803-0.13 5.814-0.693 11.595-1.771 17.32-3.182 0.944-0.231 1.868-0.512 2.806-0.76 5.586-1.499 11.125-3.263 16.556-5.451 0.207-0.083 0.42-0.154 0.625-0.238a145.827 145.827 0 0 0 17.755-8.687l2.062-1.19c18.728-11.228 34.824-26.596 46.942-45.519z m-644.013 319.86c5.129 16.905 17.303 34.16 42.133 34.23h0.306c24.82-0.078 36.99-17.329 42.117-34.23h-84.556z m584.674-666.372c0-12.811-10.418-23.23-23.24-23.23H323.501c-12.801 0-23.219 10.419-23.219 23.23l0.119 625.023h0.002v20.675c0 19.2-5.025 38.338-14.457 54.56l446.837-2.127c12.822 0 23.24-10.418 23.24-23.23v-231.559c-0.288 0.102-0.586 0.154-0.875 0.255-5.461 1.884-11.042 3.495-16.722 4.879-1.06 0.26-2.103 0.615-3.169 0.858-0.374 0.085-0.727 0.216-1.1 0.298a187.72 187.72 0 0 1-18.659 3.1c-0.807 0.093-1.618 0.086-2.423 0.168-5.785 0.594-11.563 0.943-17.33 0.99-1.76 0.012-3.514-0.116-5.276-0.153-4.865-0.1-9.713-0.331-14.539-0.815-1.96-0.198-3.903-0.49-5.856-0.751a181.261 181.261 0 0 1-13.765-2.354c-2.028-0.43-4.042-0.895-6.057-1.394A181.94 181.94 0 0 1 637 486.822c-1.999-0.658-3.995-1.285-5.976-2.013-4.467-1.647-8.848-3.536-13.2-5.537-1.766-0.81-3.56-1.522-5.307-2.39-5.974-2.979-11.85-6.22-17.55-9.87a188.323 188.323 0 0 1-14.972-10.652 185.354 185.354 0 0 1-13.707-11.93c-26.105-25.08-44.232-57.297-52.152-93.45-10.57-48.204-1.726-97.639 24.884-139.19 3.15-4.92 6.525-9.605 10.045-14.123 1.225-1.574 2.56-3.027 3.829-4.555 2.376-2.855 4.767-5.69 7.285-8.371 1.637-1.744 3.356-3.387 5.055-5.061 2.324-2.29 4.668-4.545 7.094-6.694a181.286 181.286 0 0 1 5.755-4.853 181.409 181.409 0 0 1 7.443-5.75c2.004-1.467 4.014-2.919 6.077-4.304 2.779-1.868 5.62-3.605 8.486-5.31 1.894-1.127 3.757-2.296 5.693-3.353 4.007-2.195 8.1-4.193 12.246-6.077 0.884-0.4 1.727-0.876 2.617-1.262 5.287-2.302 10.678-4.322 16.142-6.117 0.885-0.29 1.798-0.507 2.688-0.784a184.74 184.74 0 0 1 13.871-3.754c0.577-0.132 1.126-0.335 1.705-0.462 0.92-0.202 1.847-0.266 2.769-0.455 4.497-0.91 9.017-1.651 13.575-2.224 2.002-0.257 3.997-0.529 6-0.721 4.11-0.381 8.236-0.565 12.376-0.67 1.731-0.049 3.468-0.281 5.196-0.281 0.924 0 1.831 0.183 2.753 0.196 6.092 0.11 12.185 0.583 18.276 1.304 2.796 0.324 5.58 0.638 8.357 1.091a183.547 183.547 0 0 1 18.079 3.93c3.219 0.868 6.376 1.9 9.55 2.944 1.342 0.444 2.703 0.77 4.039 1.244v-95.064z"  horiz-adv-x="1024" />

    
    <glyph glyph-name="yuedu" unicode="&#59143;" d="M512 658.285C237.715 658.285 128 384 128 384s109.715-274.291 384-274.291S896 384 896 384 786.285 658.285 512 658.285z m0-438.861c-90.854 0-164.57 73.664-164.57 164.576 0 90.906 73.716 164.57 164.57 164.57S676.57 474.912 676.57 384c0-90.912-73.716-164.576-164.57-164.576zM594.278 384c0-45.427-36.85-82.291-82.278-82.291S429.722 338.573 429.722 384s36.85 82.278 82.278 82.278c45.434 0.013 82.278-36.844 82.278-82.278z m0 0"  horiz-adv-x="1024" />

    
    <glyph glyph-name="weixin" unicode="&#58914;" d="M669.103 528.162c10.238 0 20.366-0.75 30.413-1.87-27.328 127.25-163.368 221.792-318.656 221.792-173.605 0-315.816-118.336-315.816-268.6 0-86.735 47.312-157.962 126.375-213.206l-31.587-95.004 110.404 55.364c39.504-7.82 71.2-15.861 110.623-15.861 9.91 0 19.74 0.491 29.485 1.257-6.17 21.116-9.746 43.231-9.746 66.175 0.001 137.978 118.486 249.953 268.505 249.953z m-169.81 85.63c23.778 0 39.53-15.644 39.53-39.41 0-23.669-15.752-39.531-39.53-39.531-23.672 0-47.423 15.86-47.423 39.531 0 23.765 23.751 39.41 47.422 39.41zM278.263 534.85c-23.67 0-47.558 15.86-47.558 39.531 0 23.766 23.887 39.41 47.558 39.41 23.67 0 39.422-15.644 39.422-39.41 0-23.67-15.753-39.531-39.422-39.531zM957.344 282.004c0 126.267-126.347 229.19-268.257 229.19-150.265 0-268.612-102.924-268.612-229.19 0-126.485 118.347-229.19 268.612-229.19 31.451 0 63.174 7.93 94.762 15.847l86.624-47.434-23.752 78.925c63.393 47.56 110.623 110.625 110.623 181.852z m-355.348 39.518c-15.725 0-31.586 15.643-31.586 31.602 0 15.737 15.861 31.586 31.586 31.586 23.891 0 39.534-15.849 39.534-31.586 0-15.959-15.643-31.602-39.534-31.602z m173.717 0c-15.617 0-31.369 15.643-31.369 31.602 0 15.737 15.753 31.586 31.369 31.586 23.669 0 39.531-15.849 39.531-31.586 0-15.959-15.862-31.602-39.531-31.602z"  horiz-adv-x="1024" />

    
    <glyph glyph-name="4" unicode="&#58882;" d="M510.379-128c-148.651 0-425.173 228.523-425.173 444.629v430.464l42.283 0.725c0.896 0 95.275 2.005 192.64 41.685 99.883 40.789 164.309 87.595 164.907 88.021l25.216 18.475 25.472-18.475c0.597-0.469 65.024-47.232 164.907-88.021 97.365-39.68 195.413-41.685 196.395-41.685l42.069-0.725 0.213-430.464c0-216.064-280.149-444.629-428.928-444.629v0 0 0zM171.051 664.576v-347.947c0-167.083 240.853-358.357 339.328-358.357 98.517 0 342.997 191.275 342.997 358.357v347.947c-42.112 4.565-114.048 16.128-185.003 45.056-72.747 29.696-127.957 61.995-157.995 81.237-29.995-19.243-85.248-51.541-157.909-81.237-70.997-28.971-139.349-40.491-181.419-45.056v0 0 0zM487.637 154.88l-180.523 154.496 55.509 65.621 115.84-99.029 219.776 254.379 64.896-56.576-275.499-318.891z"  horiz-adv-x="1024" />

    
    <glyph glyph-name="xing2" unicode="&#58894;" d="M333.312 638.144c-8.832-16.512-22.208-27.264-36.224-28.736l-208.64-30.272C8.064 565.76-23.68 465.472 33.664 405.824l150.016-150.912a52.48 52.48 0 0 0 14.848-44.928l-36.352-214.08c-12.864-83.648 70.784-147.072 141.632-106.88l185.472 100.288a42.752 42.752 0 0 0 44.8 0.256l186.56-100.8c70.464-39.936 154.048 23.488 141.312 106.752l-36.416 213.952a60.16 60.16 0 0 0 15.104 45.696l149.376 150.464c57.728 59.968 25.984 160.192-53.888 173.504l-208.256 30.144c-16.512 3.456-30.912 14.208-36.8 27.968L598.912 834.112A94.464 94.464 0 0 1 425.024 833.92L333.312 638.144m0 0"  horiz-adv-x="1024" />

    
    <glyph glyph-name="NGlingying" unicode="&#58918;" d="M509.9 831.8c-247.2 0-447.6-200.4-447.6-447.6s200.4-447.6 447.6-447.6S957.5 137 957.5 384.2 757.1 831.8 509.9 831.8zM400.5 197.7h-90.8V490.5h90.8v-292.8z m-46 327.6c-25 2.1-43.6 24-41.5 49 2.1 25 24 43.6 49 41.5 23.5-1.9 41.6-21.5 41.7-45-0.3-25-20.8-45.1-45.8-44.9-1.2 0-2.3 0.1-3.5 0.2l0.1-0.8z m376.7-327.6h-90.8V359.4c0 37.3-13 62.2-46 62.2-21.1-0.3-39.8-13.8-46.5-33.8-1.5-7.6-1.5-15.5 0-23.1l-0.1-166.8h-93.2V490.5h78.9l4.4-40.4c19.9 30.2 54 48.1 90.3 47.2 62 0 104.3-39.8 104.3-124.3l-1.3-175.3z"  horiz-adv-x="1024" />

    
    <glyph glyph-name="liuyan" unicode="&#58926;" d="M837.632 719.36H193.024c-34.816 0-62.464-28.16-62.464-62.464v-409.088c0-34.816 28.16-62.464 62.464-62.464h65.536c11.264 0 20.992-9.216 20.992-20.992v-112.64c0-10.752 2.048-19.968 6.656-27.136 6.144-9.728 15.872-15.36 27.136-15.36 10.752 0 21.504 5.12 31.744 14.848l144.384 138.752c12.8 12.288 39.936 23.04 57.344 23.04h290.816c34.304 0 62.464 28.16 62.464 62.464V656.384c0 34.816-28.16 62.976-62.464 62.976z m20.992-471.552c0-11.264-9.216-20.992-20.992-20.992h-290.816c-28.672 0-65.536-14.848-86.528-34.816l-139.264-133.632V163.84c0 34.304-28.16 62.464-62.464 62.464H193.024c-11.776 0-20.992 9.216-20.992 20.992V656.384c0 11.264 9.216 20.992 20.992 20.992h644.608c11.264 0 20.992-9.216 20.992-20.992v-408.576z m-343.04 226.304c-19.456 0-34.816-15.872-34.816-34.816 0-19.456 15.36-34.816 34.816-34.816 18.944 0 34.816 15.872 34.816 34.816 0 18.944-15.872 34.816-34.816 34.816z m177.152 0c-18.944 0-34.816-15.872-34.816-34.816 0-19.456 15.872-34.816 34.816-34.816 19.456 0 34.816 15.872 34.816 34.816 0 18.944-15.872 34.816-34.816 34.816z m-354.304 0c-19.456 0-34.816-15.36-34.816-34.816s15.36-34.816 34.816-34.816c18.944 0 34.816 15.872 34.816 34.816 0 18.944-15.872 34.816-34.816 34.816z"  horiz-adv-x="1024" />

    
    <glyph glyph-name="xin" unicode="&#58883;" d="M907.567 742.236c-45.592 47.06-109.056 74.048-174.113 74.048-16.494 0-32.833-1.741-48.554-5.178-89.235-19.488-144.355-85.663-170.77-126.644-26.411 40.98-81.531 107.156-170.766 126.644-15.725 3.437-32.06 5.178-48.554 5.178-65.065 0-128.529-26.989-174.121-74.044C82.87 703.205 38.593 631.255 42.43 510.15c7.467-236.049 308.478-492.995 462.296-559.96a20.432 20.432 0 0 1 9.355-2.261h0.188c3.543 0 6.873 0.9 9.777 2.478 153.977 67.31 454.337 323.956 461.796 559.739 3.825 121.106-40.452 193.056-78.275 232.091z"  horiz-adv-x="1024" />

    
    <glyph glyph-name="rencai" unicode="&#59125;" d="M433.326512-122.880646c1.663374 15.674103 2.750965 29.428927 4.606267 42.927848 3.198796 23.543142 7.037352 46.894356 10.492053 70.373522 1.663374 11.771571 2.750965 23.607118 4.158435 35.378689l7.22928 54.37954c1.40747 10.492052 2.814941 21.112057 3.966508 31.668085 1.599398 15.802054 2.750965 31.668085 4.478315 47.470139 0.895663 8.444823 2.686989 16.825669 3.518676 25.270492 1.791326 17.401453-5.373978 33.075555-10.044221 49.261465-1.535422 5.757834-3.77458 11.515667-4.542291 17.337477-0.191928 1.855302 3.4547 6.013737 5.310002 6.013737 33.907242 0.383856 67.750509 0.255904 101.593775 0.255904 4.862171 0 6.653497-1.151567 4.862171-6.589521-3.838556-11.451691-6.781448-23.031334-9.980245-34.547001-1.279519-4.606267-2.878917-9.212534-3.646628-13.946753-2.686989-16.121934-0.383856-31.987965 2.942893-47.981947 2.431085-11.323739 3.198796-22.903383 4.286387-34.419049 1.535422-16.761693 2.431085-33.587363 4.478315-50.285081 3.134821-24.438805 7.037352-48.749658 10.428076-73.124487 1.599398-10.875908 2.942893-21.751816 3.966508-32.627723 1.663374-16.441814 2.878917-32.947603 4.478315-49.325442 0.959639-10.044221 2.303133-20.024466 3.902532-29.940735 0.255904-1.919278 2.814941-3.4547 5.949761-6.973376 4.734219 18.105188 8.508799 33.715315 12.859162 49.19749 4.350363 15.86603 9.340486 31.540133 13.882777 47.342187 3.134821 11.00386 5.757834 22.199647 8.700726 33.267483 3.390724 12.027475 6.973376 23.990973 10.236149 36.082424 3.070845 11.00386 5.629882 22.135671 8.764702 33.139531 3.198796 11.835547 6.717473 23.607118 10.044221 35.442665 2.942893 10.875908 5.82181 22.00772 8.892654 32.947604 3.390724 12.41133 7.037352 24.694709 10.428076 37.170014 3.006869 11.323739 5.565906 22.775431 8.636751 34.035195 3.198796 11.835547 6.9094 23.543142 10.236148 35.250737 3.006869 10.747956 5.629882 21.559888 8.572775 32.307844 1.279519 4.926147 1.40747 11.515667 4.606267 14.202656 3.838556 3.198796 11.451691 5.246026 15.86603 3.710604 20.472297-7.293256 40.304835-16.18591 60.521229-24.054949 20.856153-8.124943 41.968209-15.674103 62.888338-23.607118 16.633742-6.333617 33.267483-12.73121 49.773273-19.320731 21.303984-8.508799 41.64833-18.553019 60.265325-32.05194 16.761693-12.219402 29.940735-27.253746 37.425919-46.062669 3.390724-8.316871 3.262772-17.91326 4.222411-27.061818 1.663374-16.697717 2.559037-33.523387 4.286387-50.28508 2.111206-19.704586 4.734219-39.345196 7.037352-59.049783l0.255904-2.686989c1.471446-19.96049 2.878917-39.729052 4.478315-59.56159 1.087591-13.754825 2.175182-27.509649 4.030484-41.072546 2.878917-21.943744-20.856153-44.78315-44.335319-44.591223-128.719569 1.151567-257.375163 0.831687-386.222684 0.831687-180.732 0-361.527975-0.127952-542.387926-0.575783-16.057958 0-29.940735 3.4547-38.897365 16.249886-10.747956 15.482175-12.155427 33.267483-7.869039 51.308695 0.447832 1.791326 1.40747 3.518676 1.40747 5.246026 1.599398 19.576634 2.686989 39.153269 4.606267 58.665927 1.72735 16.633742 4.478315 33.203507 6.653496 49.773273l0.31988 2.750965c1.471446 19.512658 1.215543 39.409172 4.862171 58.537975 3.518676 18.616995 0.511807 38.385557 13.243017 55.723034 12.795186 17.081573 27.893505 31.092302 45.614837 42.288089 26.997842 17.145549 57.706288 26.486035 87.519071 37.809774 23.479166 8.95663 46.574476 18.808923 69.989667 28.149409 19.64061 7.805063 39.473148 15.546151 59.369662 22.775431 9.212534 3.4547 17.59338-2.878917 19.704586-12.283379 2.814941-12.155427 6.973376-24.118925 10.236149-36.274351 3.006869-11.00386 5.565906-22.135671 8.572774-33.203508 3.262772-12.091451 7.037352-24.054949 10.364101-36.210375 2.878917-10.68398 5.565906-21.495912 8.572774-32.243869 4.670243-17.017597 9.596389-33.907242 14.266632-50.988815 3.006869-10.68398 5.629882-21.431936 8.444823-32.115916 3.4547-12.475306 7.165304-24.758685 10.556028-37.170015 3.006869-11.067836 5.50193-22.199647 8.572775-33.267483 3.326748-12.091451 6.973376-24.054949 10.236149-36.1464 3.070845-11.067836 5.82181-22.135671 8.700726-33.267483 3.966508-15.354223 7.805063-30.772422 12.09145-46.062669 0.447832-1.919278 3.390724-3.006869 6.461569-5.565906zM272.938858 637.537247c3.582652 19.512658 7.741087 43.69556 12.603258 67.814484 5.629882 28.59724 18.553019 54.37954 34.355074 78.818345A239.909734 239.909734 0 0 0 412.022528 868.234447c17.273501 8.95663 35.442665 16.249886 55.019299 19.192779 14.522536 2.111206 28.981096 5.82181 43.503632 5.949761 15.098319 0.127952 30.388566-2.367109 45.294957-5.373978 13.946753-2.814941 27.957481-6.717473 41.072547-12.091451a229.865513 229.865513 0 0 0 92.445217-68.774123c18.361092-22.519527 32.819652-46.894356 43.311704-73.316415 6.077713-15.162295 9.084582-31.604109 12.475307-47.662067 2.942893-14.522536 6.397593-29.428927 6.269641-44.143391a471.246693 471.246693 0 0 0-5.885786-60.841109c-1.599398-11.899523-5.054098-23.479166-7.805063-35.186761-5.18205-22.391575-15.098319-42.863872-25.718324-63.144242-18.105188-34.547002-42.607969-63.847977-73.124487-88.606662a205.170804 205.170804 0 0 0-66.662918-36.594231c-21.815792-7.037352-43.951463-11.899523-66.79087-10.428076a203.187551 203.187551 0 0 0-101.849679 34.802905c-27.125794 18.361092-50.860864 40.368811-68.454244 67.750509a518.652857 518.652857 0 0 0-33.587363 58.985806c-8.124943 17.401453-13.498921 36.210376-18.872899 54.69942-2.814941 9.27651-3.262772 19.192779-4.478315 28.789168-1.663374 13.434945-3.134821 26.741938-5.246026 45.294958z"  horiz-adv-x="1024" />

    
    <glyph glyph-name="zan" unicode="&#59489;" d="M586.472727 788.945455c23.272727 0 44.218182-18.618182 51.2-44.218182l2.327273-13.963637c4.654545-23.272727 4.654545-44.218182 4.654545-67.490909 0-55.854545-4.654545-97.745455-16.290909-130.327272l-27.927272-83.781819h88.436363c86.109091 0 216.436364 0 228.072728-2.327272 23.272727 0 30.254545-9.309091 39.563636-20.945455 6.981818-13.963636 9.309091-25.6 9.309091-34.909091-4.654545-34.909091-76.8-358.4-88.436364-407.272727-4.654545-6.981818-9.309091-13.963636-16.290909-18.618182-11.636364-6.981818-13.963636-6.981818-18.618182-6.981818H323.490909V428.218182c125.672727 39.563636 216.436364 155.927273 221.090909 290.909091V733.090909c0 25.6 11.636364 55.854545 41.890909 55.854546M155.927273 414.254545v-456.145454H69.818182V414.254545h86.109091M586.472727 854.109091c-65.163636 0-107.054545-55.854545-107.054545-123.345455v-11.636363c-2.327273-125.672727-102.4-225.745455-221.090909-239.709091v-586.472727h581.818182c20.945455 0 32.581818 4.654545 53.527272 18.618181 18.618182 11.636364 32.581818 30.254545 41.890909 48.872728 2.327273 4.654545 90.763636 402.618182 93.090909 425.890909 2.327273 25.6-4.654545 51.2-16.290909 74.472727-20.945455 37.236364-53.527273 51.2-90.763636 53.527273-2.327273 0-230.4 2.327273-230.4 2.327272 13.963636 44.218182 18.618182 100.072727 18.618182 148.945455 0 32.581818-4.654545 65.163636-9.309091 95.418182-11.636364 51.2-58.181818 93.090909-114.036364 93.090909zM174.545455 477.090909H51.2c-25.6 0-44.218182-20.945455-44.218182-46.545454v-491.054546c0-25.6 20.945455-46.545455 44.218182-46.545454h123.345455c25.6 0 44.218182 20.945455 44.218181 46.545454V430.545455c2.327273 25.6-18.618182 46.545455-44.218181 46.545454z"  horiz-adv-x="1029" />

    
    <glyph glyph-name="tongzhi" unicode="&#58983;" d="M892.1 91L781.9 274.7V438c0 71.8-28.1 139.5-79.3 190.6-36.2 36.2-80.7 60.8-129 72.2v22.7c0 34-27.6 61.6-61.6 61.6s-61.6-27.6-61.6-61.6v-22.7c-48.4-11.3-92.9-36-129-72.2-51.1-51.1-79.3-118.8-79.3-190.6v-163.3L131.9 91h257.7c7.6-60.8 59.5-108 122.3-108s114.8 47.2 122.3 108h257.9zM496.4 723.4c0 8.6 7 15.6 15.6 15.6s15.6-7 15.6-15.6v-16c-5.2 0.3-10.4 0.5-15.6 0.5s-10.4-0.2-15.6-0.5v16zM288.1 261.9V438c0 123.4 100.4 223.9 223.9 223.9 123.4 0 223.9-100.4 223.9-223.9v-176.1L810.8 137H213.2l74.9 124.9zM512 29c-37.4 0-68.6 26.7-75.8 62h151.5c-7.1-35.3-38.3-62-75.7-62z"  horiz-adv-x="1024" />

    
    <glyph glyph-name="zaixianzixun" unicode="&#58976;" d="M531.692308 817.230769C350.404923 817.230769 197.632 691.436308 148.48 519.640615 104.448 493.134769 78.769231 442.052923 78.769231 382.306462c0-86.685538 52.775385-156.987077 139.342769-156.987077 19.298462 0 34.855385 15.596308 34.855385 34.894769v244.184615c0 16.029538-11.382154 28.632615-26.112 32.689231C277.661538 662.055385 395.145846 749.646769 531.692308 749.646769c136.546462 0 253.991385-87.552 304.836923-212.558769-14.729846-4.056615-26.112-16.659692-26.112-32.689231v-244.184615c0-19.298462 15.556923-34.894769 34.855384-34.894769 8.073846 0 15.36 0.984615 22.843077 2.166153-11.264-65.063385-38.596923-113.585231-66.402461-147.140923-17.368615-20.952615-35.170462-36.115692-48.994462-45.764923-6.931692-4.844308-12.288-7.876923-16.344615-9.846154-2.008615-0.945231-3.662769-1.851077-4.332308-2.166153h-65.378461c-12.524308 36.430769-52.460308 63.212308-100.115693 63.212307-57.737846 0-104.526769-38.990769-104.526769-87.197538 0-48.167385 46.788923-87.197538 104.526769-87.197539 47.655385 0 87.591385 26.781538 100.155077 63.212308h68.568616c11.815385 0 14.808615 3.150769 21.779692 6.537846 7.010462 3.426462 15.241846 8.073846 23.985231 14.178462 17.408 12.209231 38.478769 30.011077 58.761846 54.508307 36.745846 44.268308 70.931692 110.08 79.478154 198.380308C960.354462 275.495385 984.615385 324.647385 984.615385 382.306462c0 59.746462-25.718154 110.828308-69.71077 137.334153C865.792 691.436308 713.019077 817.230769 531.692308 817.230769z"  horiz-adv-x="1063" />

    
    <glyph glyph-name="tags1" unicode="&#58880;" d="M838.22298706 267.22294897999996l18.55850067 18.55850066c21.20971504 21.20971504 21.20971504 55.67550198 0 76.88521703l-371.17001325 371.17001324-291.63358182 7.95364313 2.65121438-66.2803595 243.91172298-7.95364314L838.22298706 267.22294897999996zM782.42386678 275.17659212l-371.17001323 371.17001324-291.63358182 7.95364314 7.95364313-291.63358183 371.17001324-371.17001324c21.20971504-21.20971504 55.67550198-21.20971504 76.88521702 0l204.14350729 204.14350729C806.28479621 219.50109013999997 806.28479621 253.96687707 782.42386678 275.17659212zM260.13463387 460.76159874c-31.81457257 0-58.32671636 26.51214381-58.32671636 58.32671637 0 31.81457257 26.51214381 58.32671636 58.32671636 58.32671636 31.81457257 0 58.32671636-26.51214381 58.32671637-58.32671636C315.81013586 487.27374254 291.94920643 460.76159874 260.13463387 460.76159874z"  horiz-adv-x="1024" />

    
    <glyph glyph-name="weibo" unicode="&#59162;" d="M751.968 425.888c16.32 41.12 18.016 76.576 0.32 101.856-33.216 47.424-124.096 44.896-228.256 1.28 0 0.064-32.704-14.304-24.352 11.648 16.032 51.52 13.6 94.624-11.328 119.552-56.512 56.544-206.784-2.144-335.68-130.976C56.16 432.736 0.128 330.432 0.128 241.984c0-169.184 216.96-272.064 429.248-272.064 278.24 0 463.328 161.664 463.328 290.016 0 77.536-65.312 121.536-124 139.776-14.4 4.32-24.288 7.264-16.736 26.176zM103.36 201.632c-11.008 111.2 117.44 214.88 286.784 231.616 169.376 16.768 315.584-59.808 326.592-170.976 10.976-111.232-117.408-214.976-286.784-231.712-169.376-16.704-315.584 59.84-326.592 171.04z m343.52 146.048c-80.608 20.992-171.712-19.2-206.72-90.208-35.648-72.416-1.184-152.832 80.256-179.104 84.352-27.2 183.776 14.496 218.336 92.672 34.08 76.416-8.48 155.136-91.872 176.672z m-61.536-184.96c-16.384-26.144-51.456-37.568-77.888-25.536-26.048 11.84-33.728 42.208-17.312 67.712 16.192 25.376 50.08 36.704 76.32 25.696 26.528-11.296 35.008-41.472 18.912-67.872z m53.952 69.28c-5.92-10.144-19.008-15.008-29.28-10.784-10.112 4.16-13.248 15.488-7.52 25.44 5.92 9.888 18.496 14.72 28.576 10.752 10.24-3.744 13.888-15.232 8.256-25.408zM953.504 709.344a270.624 270.624 0 0 0 56.64-264.896v-0.16a39.168 39.168 0 0 0-74.56 24.192v0.032a192.512 192.512 0 0 1-223.52 247.68 39.168 39.168 0 0 0-16.384 76.608h0.032a270.72 270.72 0 0 0 257.792-83.424z m-103.2-93.12a131.712 131.712 0 0 0 27.52-129.056 33.728 33.728 0 0 0-64.16 20.736h-0.032a64.448 64.448 0 0 1-74.848 82.912v0.032a33.664 33.664 0 1 0-14.08 65.92 131.904 131.904 0 0 0 125.568-40.576z"  horiz-adv-x="1024" />

    
    <glyph glyph-name="jiahao" unicode="&#58902;" d="M512 896c-285.257143 0-512-226.742857-512-512s226.742857-512 512-512 512 226.742857 512 512-226.742857 512-512 512z m0-950.857143c-241.371429 0-438.857143 197.485714-438.857143 438.857143s197.485714 438.857143 438.857143 438.857143 438.857143-197.485714 438.857143-438.857143-197.485714-438.857143-438.857143-438.857143zM731.428571 420.571429h-182.857142v182.857142c0 21.942857-14.628571 36.571429-36.571429 36.571429s-36.571429-14.628571-36.571429-36.571429v-182.857142h-182.857142c-21.942857 0-36.571429-14.628571-36.571429-36.571429s14.628571-36.571429 36.571429-36.571429h182.857142v-182.857142c0-21.942857 14.628571-36.571429 36.571429-36.571429s36.571429 14.628571 36.571429 36.571429v182.857142h182.857142c21.942857 0 36.571429 14.628571 36.571429 36.571429s-14.628571 36.571429-36.571429 36.571429z"  horiz-adv-x="1024" />

    
    <glyph glyph-name="xin1" unicode="&#58884;" d="M745.68415373 777.08255694C646.75837689 777.08255694 560.28021438 720.74072378 515.07572033 638.19338682 470.52636389 720.74072378 383.39306376 777.08255694 283.81214934 777.08255694c-144.13027087 0-260.74476275-117.26962948-260.74476276-262.05503796 0-68.78944747 26.2055038-131.02751898 69.44458505-178.19742581l400.28907047-402.25448326C499.35241806-71.32062843000006 507.21406919-74.59631642 515.07572033-74.59631642c7.86165114 0 15.72330227 3.27568798 22.27467824 9.17192633l400.28907045 402.25448326C980.22341269 383.3448624 1006.42891649 446.2380715 1006.42891649 515.02751898 1006.42891649 659.8129274400001 889.8144246 777.08255694 745.68415373 777.08255694zM887.84901182 379.41403683L515.07572033 0.7445069899999908 142.30242883 379.41403683C108.89041151 414.79146696 88.58114605 462.61651139 88.58114605 515.02751898c0 108.75284075 87.78843771 196.54127846 195.2310033 196.54127845C370.94544944 711.56879744 446.28627286 653.9166891 472.49177666 574.6450401 479.04315261 557.61146264 496.07673007 545.16384834 515.07572033 545.16384834c19.65412785 0 36.03256773 11.7924767 43.23908126 28.82605417l0 0C583.86516779 653.9166891 658.5508536 711.56879744 745.68415373 711.56879744c108.09770315 0 195.23100328-87.78843771 195.23100328-196.54127846C941.57029458 462.61651139 921.26102915 414.79146696 887.84901182 379.41403683z"  horiz-adv-x="1024" />

    
    <glyph glyph-name="question-circle" unicode="&#59266;" d="M512 832C264.6 832 64 631.4 64 384s200.6-448 448-448 448 200.6 448 448S759.4 832 512 832z m0-820c-205.4 0-372 166.6-372 372s166.6 372 372 372 372-166.6 372-372-166.6-372-372-372zM623.6 579.3C593.6 605.6 554 620 512 620s-81.6-14.5-111.6-40.7C369.2 552 352 515.3 352 476v-7.6c0-4.4 3.6-8 8-8h48c4.4 0 8 3.6 8 8V476c0 44.1 43.1 80 96 80s96-35.9 96-80c0-31.1-22-59.6-56.1-72.7-21.2-8.1-39.2-22.3-52.1-40.9-13.1-19-19.9-41.8-19.9-64.9V276c0-4.4 3.6-8 8-8h48c4.4 0 8 3.6 8 8v22.7c0 19.7 12.4 37.7 30.9 44.8 59 22.7 97.1 74.7 97.1 132.5 0.1 39.3-17.1 76-48.3 103.3zM512 164m-40 0a40 40 0 1 1 80 0 40 40 0 1 1-80 0Z"  horiz-adv-x="1024" />

    
    <glyph glyph-name="team" unicode="&#59310;" d="M824.2 196.1c-25.4 25.4-54.7 45.7-86.4 60.4C783.1 293.2 812 349.2 812 412c0 110.8-92.4 201.7-203.2 200-109.1-1.7-197-90.6-197-200 0-62.8 29-118.8 74.2-155.5-31.7-14.7-60.9-34.9-86.4-60.4C345 141.4 314 69.2 312-7.8c-0.1-4.5 3.5-8.2 8-8.2h56c4.3 0 7.9 3.4 8 7.7 1.9 58 25.4 112.3 66.7 153.5C493.8 188.3 551.1 212 612 212c60.9 0 118.2-23.7 161.3-66.8C814.5 104 838 49.7 840-8.3c0.1-4.3 3.7-7.7 8-7.7h56c4.5 0 8.1 3.7 8 8.2-2 77-33 149.2-87.8 203.9zM612 284c-34.2 0-66.4 13.3-90.5 37.5-24.5 24.5-37.9 57.1-37.5 91.8 0.3 32.8 13.4 64.5 36.3 88 24 24.6 56.1 38.3 90.4 38.7 33.9 0.3 66.8-12.9 91-36.6 24.8-24.3 38.4-56.8 38.4-91.4 0-34.2-13.3-66.3-37.5-90.5-24.2-24.2-56.4-37.5-90.6-37.5zM361.5 385.6c-0.9 8.7-1.4 17.5-1.4 26.4 0 15.9 1.5 31.4 4.3 46.5 0.7 3.6-1.2 7.3-4.5 8.8-13.6 6.1-26.1 14.5-36.9 25.1-25.8 25.2-39.7 59.3-38.7 95.4 0.9 32.1 13.8 62.6 36.3 85.6 24.7 25.3 57.9 39.1 93.2 38.7 31.9-0.3 62.7-12.6 86-34.4 7.9-7.4 14.7-15.6 20.4-24.4 2-3.1 5.9-4.4 9.3-3.2 17.6 6.1 36.2 10.4 55.3 12.4 5.6 0.6 8.8 6.6 6.3 11.6-32.5 64.3-98.9 108.7-175.7 109.9-110.9 1.7-203.3-89.2-203.3-199.9 0-62.8 28.9-118.8 74.2-155.5-31.8-14.7-61.1-35-86.5-60.4-54.8-54.7-85.8-126.9-87.8-204-0.1-4.5 3.5-8.2 8-8.2h56.1c4.3 0 7.9 3.4 8 7.7 1.9 58 25.4 112.3 66.7 153.5 29.4 29.4 65.4 49.8 104.7 59.7 3.9 1 6.5 4.7 6 8.7z"  horiz-adv-x="1024" />

    
    <glyph glyph-name="sever" unicode="&#59313;" d="M832 832H192c-17.7 0-32-14.3-32-32v-832c0-17.7 14.3-32 32-32h640c17.7 0 32 14.3 32 32V800c0 17.7-14.3 32-32 32z m-600-72h560v-208H232V760z m560-480H232V488h560v-208z m0-272H232V216h560v-208zM496 688H312c-4.4 0-8-3.6-8-8v-48c0-4.4 3.6-8 8-8h184c4.4 0 8 3.6 8 8v48c0 4.4-3.6 8-8 8zM312 352h184c4.4 0 8 3.6 8 8v48c0 4.4-3.6 8-8 8H312c-4.4 0-8-3.6-8-8v-48c0-4.4 3.6-8 8-8zM680 108m-40 0a40 40 0 1 1 80 0 40 40 0 1 1-80 0Z"  horiz-adv-x="1024" />

    
    <glyph glyph-name="wrench" unicode="&#59365;" d="M876.6 656.5c-0.5 0.9-1.2 1.8-2 2.5-5 5-13.1 5-18.1 0L684.2 486.7l-67.9 67.9L788.7 727c0.8 0.8 1.4 1.6 2 2.5 3.6 6.1 1.6 13.9-4.5 17.5-98.2 58-226.8 44.7-311.3-39.7-67-67-89.2-162-66.5-247.4l-293-293c-3-3-2.8-7.9 0.3-11l169.7-169.7c3.1-3.1 8.1-3.3 11-0.3l292.9 292.9c85.5-22.8 180.5-0.7 247.6 66.4 84.4 84.5 97.7 213.1 39.7 311.3zM786 396.2c-58.1-58.1-145.3-69.3-214.6-33.6l-8.8-8.8-0.1 0.1-274-274.1-79.2 79.2 230.1 230.1s0-0.1 0.1-0.1l52.8 52.8c-35.7 69.3-24.5 156.5 33.6 214.6 39.2 39.2 92.1 57.3 144 53.5L537 577.1c-12.5-12.5-12.5-32.8 0-45.3l124.5-124.5c12.5-12.5 32.8-12.5 45.3 0l132.8 132.8c3.7-51.8-14.4-104.8-53.6-143.9z"  horiz-adv-x="1024" />

    
    <glyph glyph-name="tags" unicode="&#59366;" d="M483.2 105.7L861.4 484c1.7 1.7 2.5 4 2.3 6.3l-25.5 301.4c-0.7 7.8-6.8 13.9-14.6 14.6L522.2 831.7c-2.3 0.2-4.7-0.6-6.3-2.3L137.7 451.2c-3.1-3.1-3.1-8.2 0-11.3l334.2-334.2c3.1-3.2 8.2-3.2 11.3 0z m62.6 651.7l224.6-19 19-224.6L477.5 202 233.9 445.5l311.9 311.9zM605.958852 571.173768a48 48 0 1 1 67.881066 67.883435 48 48 0 1 1-67.881066-67.883435ZM889.7 356.2l-39.6 39.5c-3.1 3.1-8.2 3.1-11.3 0l-362-361.3-237.6 237c-3.1 3.1-8.2 3.1-11.3 0l-39.6-39.5c-3.1-3.1-3.1-8.2 0-11.3l243.2-242.8 39.6-39.5c3.1-3.1 8.2-3.1 11.3 0l407.3 406.6c3.1 3.1 3.1 8.2 0 11.3z"  horiz-adv-x="1024" />

    
    <glyph glyph-name="download" unicode="&#59375;" d="M505.7 235c3.2-4.1 9.4-4.1 12.6 0l112 141.7c4.1 5.2 0.4 12.9-6.3 12.9h-74.1V728c0 4.4-3.6 8-8 8h-60c-4.4 0-8-3.6-8-8v-338.3H400c-6.7 0-10.4-7.7-6.3-12.9l112-141.8zM878 270h-60c-4.4 0-8-3.6-8-8v-154H214V262c0 4.4-3.6 8-8 8h-60c-4.4 0-8-3.6-8-8v-198c0-17.7 14.3-32 32-32h684c17.7 0 32 14.3 32 32V262c0 4.4-3.6 8-8 8z"  horiz-adv-x="1024" />

    
    <glyph glyph-name="fenxiang" unicode="&#58946;" d="M826.026667 534.186667c92.16 0 163.84 75.093333 163.84 163.84C989.866667 786.773333 914.773333 861.866667 826.026667 861.866667c-92.16 0-163.84-75.093333-163.84-163.84 0-6.826667 0-17.066667 3.413333-23.893334L317.44 541.013333c-30.72 30.72-71.68 51.2-119.466667 51.2C109.226667 592.213333 34.133333 520.533333 34.133333 428.373333s75.093333-163.84 163.84-163.84c34.133333 0 68.266667 10.24 95.573334 30.72l235.52-157.013333c-10.24-20.48-13.653333-44.373333-13.653334-68.266667 0-92.16 75.093333-163.84 163.84-163.84 92.16 0 163.84 75.093333 163.84 163.84s-75.093333 163.84-163.84 163.84c-44.373333 0-85.333333-17.066667-116.053333-47.786666l-225.28 150.186666c17.066667 27.306667 27.306667 58.026667 27.306667 88.746667 0 20.48-3.413333 40.96-10.24 61.44L682.666667 616.106667c27.306667-47.786667 81.92-81.92 143.36-81.92zM197.973333 325.973333c-58.026667 0-105.813333 47.786667-105.813333 105.813334 0 58.026667 47.786667 105.813333 105.813333 105.813333 58.026667 0 105.813333-47.786667 105.813334-105.813333 0-61.44-47.786667-105.813333-105.813334-105.813334z m477.866667-150.186666c58.026667 0 105.813333-47.786667 105.813333-105.813334 0-58.026667-47.786667-105.813333-105.813333-105.813333-58.026667 0-105.813333 47.786667-105.813333 105.813333 0 58.026667 47.786667 105.813333 105.813333 105.813334z m150.186667 628.053333c58.026667 0 105.813333-47.786667 105.813333-105.813333 0-58.026667-47.786667-105.813333-105.813333-105.813334-58.026667 0-105.813333 47.786667-105.813334 105.813334 0 58.026667 47.786667 105.813333 105.813334 105.813333z m0 0"  horiz-adv-x="1024" />

    
    <glyph glyph-name="didian" unicode="&#59108;" d="M512 883.2c-212 0-384-165.6-384-369.6 0-67.2 19.2-133.6 56-192l301.6-422.4c5.6-8.8 16-14.4 26.4-14.4 10.4 0 20.8 5.6 26.4 14.4l302.4 424c36 57.6 55.2 123.2 55.2 191.2 0 203.2-172 368.8-384 368.8z m0-576c-106.4 0-192 85.6-192 192s85.6 192 192 192 192-85.6 192-192-85.6-192-192-192z"  horiz-adv-x="1024" />

    
    <glyph glyph-name="keyan" unicode="&#59045;" d="M911.36 614.4c-35.5328 61.44-132.1984 65.9456-244.736 36.4544C634.88 762.88 583.68 844.8 512 844.8c-65.024 0-120.4224-70.2464-154.4192-193.8432-110.6944 28.7744-208.5888 25.6-244.9408-36.5568-27.648-47.8208-7.68-116.5312 56.4224-193.1264 10.24-12.3904 22.016-24.8832 34.304-37.2736-12.288-12.3904-23.9616-24.8832-34.304-37.2736C105.1648 270.1312 85.1968 201.4208 112.64 153.6c20.48-36.0448 64.512-54.272 125.952-54.272a482.304 482.304 0 0 1 118.9888 17.5104C388.3008 6.5536 440.32-76.8 512-76.8s122.88 81.92 153.6 193.9456a493.9776 493.9776 0 0 1 120.832-17.7152c57.6512 0 102.4 16.2816 124.5184 54.1696C943.4112 209.92 911.36 292.9664 820.224 384 901.12 465.92 946.8928 552.3456 911.36 614.4z m-50.176-28.7744C882.8928 547.84 826.368 452.3008 699.1872 353.28v30.72a1100.1856 1100.1856 0 0 1-20.48 211.2512c98.5088 25.6 166.1952 18.432 182.4768-9.6256zM287.6416 384a1035.0592 1035.0592 0 0 0 159.5392 112.64A1035.0592 1035.0592 0 0 0 624.64 578.56a1033.6256 1033.6256 0 0 0 17.2032-194.56A1033.6256 1033.6256 0 0 0 624.64 189.44a1035.0592 1035.0592 0 0 0-177.152 81.92 1035.0592 1035.0592 0 0 0-159.8464 112.64zM512 787.2512c32.3584 0 71.68-55.0912 99.328-152.8832a988.9792 988.9792 0 0 1-99.328-39.7312 966.9632 966.9632 0 0 1-99.4304 39.7312C441.4464 739.6352 482.304 787.2512 512 787.2512zM162.816 585.6256c21.8112 37.9904 133.12 36.5568 282.3168-24.6784-8.9088-4.9152-17.8176-10.24-26.7264-14.336A1104.4864 1104.4864 0 0 1 245.76 424.0384a610.48832 610.48832 0 0 0-31.8464 34.5088c-45.6704 53.8624-65.1264 102.7072-51.0976 127.0784z m0-403.2512c-14.4384 24.3712 5.4272 73.216 51.2 127.488 9.6256 11.4688 20.48 23.04 31.744 34.5088a1040.9984 1040.9984 0 0 1 84.1728-65.536 1003.52 1003.52 0 0 1 15.0528-105.984c-105.7792-27.7504-167.424-16.0768-182.1696 9.5232zM512-19.2512c-43.9296 0-98.2016 96.8704-120.0128 256.9216 8.704-5.3248 17.408-10.24 26.4192-15.7696a1090.048 1090.048 0 0 1 192.9216-88.2688C583.68 35.84 544.3584-19.2512 512-19.2512z m349.184 201.6256c-16.2816-28.0576-83.968-35.2256-182.0672-9.6256a994.7136 994.7136 0 0 1 15.2576 105.6768A994.816 994.816 0 0 1 778.24 344.6784c77.0048-77.4144 97.792-136.6016 82.944-162.304zM512 297.5744A86.4256 86.4256 0 1 0 598.3232 384 86.3232 86.3232 0 0 0 512 297.5744z m0 115.2A28.7744 28.7744 0 1 1 540.7744 384 28.7744 28.7744 0 0 1 512 412.7744z"  horiz-adv-x="1024" />

    
    <glyph glyph-name="tiwen" unicode="&#58984;" d="M408.116762-66.867427c-75.225793 0-149.939846-1.53522-225.165638 0-45.544868 1.02348-82.901894 18.934383-85.972335 70.620132-1.02348 16.375683 0 33.263106 0 49.638789V585.089444c0 57.82663-2.5587 116.165 0 173.99163 3.582181 79.831454 70.108392 75.737533 128.446762 75.737533h527.09229c20.469603 0 41.450947 2.04696 61.920551 0 59.36185-5.629141 70.108392-50.662269 70.108391-99.789317v-252.287863c0-37.868766 58.85011-37.868766 58.850111 0V731.958849c0 87.507555-38.380507 160.174647-136.122864 162.221608-181.667731 4.093921-363.847202 0-545.514933 0C194.209406 894.180457 115.913172 905.950479 66.786124 847.100369 26.870397 798.485061 37.616939 724.794488 37.616939 665.944378v-593.106761c0-82.901894 2.5587-179.109031 106.953678-197.019934 42.474427-7.164361 89.554515-2.04696 132.540683-2.04696h131.005462c37.868766 0.51174 37.868766 59.36185 0 59.36185zM220.30815 621.42299h540.397532c37.868766 0 37.868766 58.85011 0 58.85011H220.30815c-37.868766 0-37.868766-58.85011 0-58.85011zM220.30815 391.139951h375.105484c37.868766 0 37.868766 58.85011 0 58.85011H220.30815c-37.868766 0.51174-37.868766-58.85011 0-58.85011zM220.30815 161.368652h270.198766c37.868766 0 37.868766 58.85011 0 58.85011H220.30815c-37.868766 0-37.868766-58.85011 0-58.85011zM984.847841 287.768454c-1.02348 6.652621-3.070441 13.305242-6.140881 19.446123v1.02348c-6.652621 14.328722-15.352203 27.633965-26.098745 39.403987-9.723062 11.258282-20.981344 20.469603-33.774846 27.633965-6.140881 3.070441-12.281762 5.629141-18.422643 7.676101-7.676101 2.5587-15.863943 3.582181-24.051784 4.093921h-3.07044c-19.446123 0-38.380507-6.652621-53.73271-18.934384l-0.51174-0.51174-0.51174-0.51174c-5.117401-4.605661-10.234802-8.699581-14.840462-13.816982-5.117401-5.117401-9.211322-9.211322-12.793502-12.281762l-3.582181-3.582181-2.558701-2.5587-28.145704-27.122225 1.02348-1.02348-2.04696-2.558701-99.277577-102.348017-71.131873-73.178833c-10.234802-10.746542-18.934383-19.446123-26.098744-27.122224l-11.258282-11.770022-1.53522-1.53522c-10.234802-10.746542-18.934383-23.028304-24.563524-36.845287-2.5587-5.117401-5.117401-11.770022-8.187842-20.981343-2.5587-8.187841-5.117401-16.887423-8.187841-26.610485-2.5587-9.211322-5.117401-17.910903-7.676101-26.610484-2.5587-8.187841-4.093921-16.887423-5.629141-25.587005-3.070441-20.981344 1.02348-39.403987 11.770022-53.220969 6.652621-8.187841 20.981344-21.493084 47.080088-21.493083 3.070441 0 6.652621 0 10.234801 0.51174h2.046961c5.629141 1.02348 12.793502 2.5587 22.516564 5.117401 8.699581 2.5587 17.910903 5.117401 28.145704 8.699581 9.211322 3.070441 18.422643 6.652621 27.633965 9.723062 9.723062 3.582181 16.887423 6.652621 22.516564 9.723061 7.676101 3.582181 14.328722 7.676101 20.981343 12.793503 9.211322 7.164361 18.422643 15.352203 26.610485 24.051784l24.563524 25.587004c10.746542 11.258282 21.493084 22.516564 32.751366 33.263106l0.51174 0.51174 0.51174 0.51174 36.845286 38.380506 99.277577 102.348018 31.727886 33.263105 0.51174 0.511741c3.070441 2.5587 6.140881 5.629141 9.211321 8.699581 2.04696 2.04696 4.093921 4.605661 7.164361 7.164361l12.281763 12.281762c13.816982 15.352203 21.493084 35.310066 21.493083 55.77967-1.02348 7.676101-2.04696 14.840463-3.58218 22.004824z m-211.348656-208.278216l-36.845287-38.380506c-12.281762-12.281762-23.540044-23.540044-33.263105-33.774846l-24.563525-25.587005c-6.652621-7.164361-14.328722-14.328722-22.004823-20.469603-3.582181-3.070441-8.187841-5.629141-12.281762-7.676101-6.140881-3.070441-12.793502-5.629141-18.934384-8.187842-8.187841-3.070441-16.887423-6.140881-26.098744-9.211321-14.328722-4.605661-29.169185-8.699581-44.009648-12.281762-1.53522 0-3.070441-0.51174-5.1174-0.51174-5.629141 0-9.211322 1.53522-11.770022 4.09392-2.5587 3.582181-3.582181 9.211322-2.558701 17.910903 0.51174 4.605661 2.04696 10.746542 4.605661 19.446124l7.676101 26.098744c2.5587 9.211322 5.117401 17.399163 7.676102 25.075264 2.5587 7.676101 4.605661 12.793502 6.140881 15.863943 2.04696 4.605661 4.093921 8.699581 6.140881 12.281762 2.04696 3.582181 5.629141 7.676101 9.723061 12.281762l12.793502 13.305242c6.652621 7.164361 15.352203 15.863943 25.587005 26.610485l33.774846 34.798326 136.634603 140.728524 86.484075-89.554515-99.789317-102.859758z m165.803788 174.50337c-1.53522-4.605661-4.093921-8.187841-7.676101-11.770022l-9.723062-10.234802-7.676101-7.676101c-2.04696-2.5587-4.605661-4.605661-7.164362-6.652621l-86.484074 89.042775 13.305242 12.793502c4.093921 4.093921 8.187841 7.676101 12.793502 11.770022 7.164361 6.140881 16.375683 9.211322 25.587004 9.211322h1.535221c4.605661 0 8.699581-1.02348 12.793502-2.046961 4.093921-1.53522 7.676101-2.5587 10.746542-4.09392 6.652621-3.582181 13.816982-9.723062 21.493083-18.422644 8.187841-8.699581 13.816982-17.910903 18.422643-27.122224 2.5587-7.164361 4.093921-14.328722 4.093921-22.004824 0-4.605661-0.51174-8.699581-2.04696-12.793502z"  horiz-adv-x="1024" />

    
    <glyph glyph-name="qianbao" unicode="&#58895;" d="M859.024-32.488H163.158c-54.661 0-98.98 44.315-98.98 98.974V593.993l-0.299-0.196s0.092 21.917 0.179 47.236c-0.016 2.837-0.016 5.424 0.026 7.768 0.069 20.791 0.128 42.576 0.128 55.689 0 47.845 36.012 93.021 89.576 93.021h549.133c47.846 0 97.53-31.672 97.53-93.021 0-12.746 0.089-23.539-0.15-32.696h58.724c54.662 0 98.981-44.315 98.981-98.971v-506.338c0-54.658-44.319-98.973-98.982-98.973zM738.037 704.575c0 17.915-14.625 32.448-35.116 32.448H160.79c-20.493 0-35.118-14.534-35.118-32.448 0-17.912 14.625-32.447 35.118-32.447h577.247v32.447z m157.474-320.429H639.057v-127.981h256.454V384.146z m0-191.47H625.052c-27.331 0-49.489 17.359-49.489 63.488V398.149c0 27.325 22.158 49.483 49.489 49.483h270.459V558.82c0 27.329-22.159 49.487-49.491 49.487H126.673v-527.818c0-27.329 22.159-49.486 49.49-49.486H846.02c27.332 0 49.491 22.157 49.491 49.486V192.676z"  horiz-adv-x="1024" />

    
    <glyph glyph-name="renzheng_fuzhi" unicode="&#58898;" d="M948.446319 754.440482l-39.916309 0.595887c-3.573964 0-86.981911 2.380825-172.770683 37.531395-89.959987 36.342346-148.343368 78.043592-150.729648 79.833983L561.198253 889.675679c-4.761649 3.579418-10.126004 5.362991-16.086247 5.362992-5.954789 0-11.319143-1.783573-16.086247-5.362992l-23.831426-17.273932c-0.590434-0.597252-60.764206-43.491637-151.320081-79.833983-85.788772-35.15057-169.196719-37.531394-172.770683-37.531395l-39.917674-0.595887c-14.893107 0-26.808139-12.512283-26.808139-27.405391v-406.306935c0-98.896943 57.190242-210.90342 157.281688-306.220944 91.151763-86.981911 196.004858-141.200895 273.452562-141.200895h0.005454c78.043592 0 182.895323 53.623096 272.855311 141.200895 100.084628 95.317524 157.281687 206.728113 157.281687 306.220944V727.035091c0 14.893107-11.915031 27.40539-26.808139 27.405391z m-28.006732-434.308214c0-84.003835-50.639565-181.110387-140.002301-266.310088-78.640844-75.06688-173.367934-125.705081-235.32528-125.705082-61.958709 0-156.684436 50.638202-235.32528 125.705082-88.766848 85.198338-140.002301 182.30489-140.002301 266.310088V699.631064h13.102717c3.579418 0.595888 97.11337 2.976712 192.430894 41.701247 96.517482 39.320422 159.667966 84.601087 162.04879 86.384659l7.74518 5.954789 7.745179-5.954789c6.55204-4.767103 67.918952-48.257377 162.048791-86.384659 94.727091-38.724534 188.261042-41.701246 192.430894-41.701247h13.102717v-379.498796zM464.042612 351.871141c3.26443-10.586897 10.183275-25.662725 14.666752-33.399723-70.471588-57.8434-82.28026-67.616235-88.805028-76.985448-4.482114 7.739725-16.694407 19.957473-23.622798 25.255012 9.367849 7.738362 24.034601 24.844572 24.034601 47.657399v129.943113h-52.956301v36.256439h89.615v-158.868903l37.067774 30.142111z m-44.8075 159.273889c-12.629552 17.515287-40.735826 43.996165-62.731863 63.145031l24.8473 22.808735c21.589688-17.518014 50.510025-43.175285 64.368168-59.884691l-26.483605-26.069075z m287.995228-227.704186v-35.445105H461.19135v35.445105h32.582934V472.451859h37.485032v-189.009652h47.657399V542.106658h-105.511708v35.438287h226.081517v-35.438287h-81.875274v-99.394652h74.138276v-35.026483h-74.138276v-124.244679h89.61909z"  horiz-adv-x="1221" />

    
    <glyph glyph-name="xuqiu" unicode="&#58950;" d="M128 896h768a128 128 0 0 0 128-128v-768a128 128 0 0 0-128-128H128a128 128 0 0 0-128 128V768a128 128 0 0 0 128 128z m128-320v-64h320V576H256z m0-192v-64h512V384H256z m0-192v-64h512v64H256z"  horiz-adv-x="1024" />

    
    <glyph glyph-name="Shape" unicode="&#58885;" d="M902.007467 296.618667a45.397333 45.397333 0 0 1-45.329067-45.329067v-258.321067a23.483733 23.483733 0 0 0-23.620267-23.552H114.8928a23.483733 23.483733 0 0 0-23.552 23.552V736.6656c0 12.970667 10.513067 23.552 23.552 23.552h322.491733a45.397333 45.397333 0 0 1 0 90.658133H115.029333C52.087467 850.944 0.887467 799.744 0.887467 736.802133v-743.697066c0-62.805333 51.2-114.005333 114.141866-114.005334h718.301867c62.941867 0 114.141867 51.2 114.141867 114.141867v258.048a45.6704 45.6704 0 0 1-45.4656 45.329067z m-473.4976 197.973333c-54.4768-82.3296-67.7888-163.293867-69.0176-172.2368a45.4656 45.4656 0 0 1 44.8512-51.882667 45.738667 45.738667 0 0 1 44.782933 38.570667 377.173333 377.173333 0 0 0 56.388267 137.4208c58.436267 86.698667 146.158933 130.8672 260.437333 131.208533l4.573867-0.2048c24.917333 0 45.329067 88.4736 45.329066 113.595734v53.316266l127.317334-121.105066-127.453867-106.154667V697.002667a45.397333 45.397333 0 0 1-90.658133 0v-276.616534a45.533867 45.533867 0 0 1 74.205866-34.952533l240.776534 200.4992a45.2608 45.2608 0 0 1 16.110933 33.314133 45.329067 45.329067 0 0 1-13.9264 34.4064L801.450667 882.824533a45.2608 45.2608 0 0 1-76.3904-32.768V666.624c-159.197867-13.312-249.173333-100.5568-296.618667-172.032z"  horiz-adv-x="1092" />

    
    <glyph glyph-name="shijian" unicode="&#58881;" d="M804.571429 384a36.571429 36.571429 0 0 0 0-73.142857H505.782857a36.571429 36.571429 0 0 0 0 73.142857H804.571429zM539.428571 347.428571a36.571429 36.571429 0 0 0-73.142857 0V667.428571a36.571429 36.571429 0 0 0 73.142857 0V347.428571zM509.220571-54.857143c240.713143 0 436.004571 196.388571 436.004572 438.857143s-195.291429 438.857143-436.004572 438.857143C268.434286 822.857143 73.142857 626.468571 73.142857 384s195.291429-438.857143 436.077714-438.857143z m0-73.142857C227.986286-128 0 101.229714 0 384s227.986286 512 509.220571 512c281.234286 0 509.147429-229.229714 509.147429-512s-227.913143-512-509.147429-512z"  horiz-adv-x="1024" />

    


  </font>
</defs>
</svg>
